<?xml version="1.0" encoding="utf-8"?>
<!-- Generator: Adobe Illustrator 25.2.1, SVG Export Plug-In . SVG Version: 6.00 Build 0)  -->
<svg version="1.1" id="Warstwa_1" xmlns="http://www.w3.org/2000/svg" xmlns:xlink="http://www.w3.org/1999/xlink" x="0px" y="0px"
	 viewBox="0 0 1440 1165" style="enable-background:new 0 0 1440 1165;" xml:space="preserve">
<style type="text/css">
	.st0{fill:#6520D1;}
	.st1{fill:#571EC4;}
	.st2{fill:#1F1247;}
</style>
<g>
	<path class="st0" d="M1218.8,284.7c86.1,6.6,145.2,22.4,221.2,60.7v478.1C1293.7,710,1015.9,619.2,831,634.9
		c-148.6,13.3-210.5,56.5-292.8,85.6C380.8,775.8,315,805.3,0,815.6V300.9C606.3,753.8,825.6,258,1218.8,284.7z"/>
</g>
<g>
	<path class="st1" d="M1240,323.3c86.7,9,157.8,50.6,199.7,66.5l1,391c-101.4-105.3-327.9-194.9-498.9-191
		c-103.2-5.7-268.2,42.3-355.9,73.6C490.1,700.9,316.8,775.6,1.3,772.1v-407C627,773.6,844.5,285.3,1240,323.3z"/>
</g>
<g>
	<path class="st2" d="M1221.6,376c107.2,7.7,190,56.7,218.2,78.1l2.7,270.2c-123-104.1-246.9-156.9-430.8-170.8
		c-162.4-6.8-336,49.6-418.2,72.2C505.5,646.9,307,718.3,1.3,708.4L0,434.4C654.3,749.8,833.9,356.5,1221.6,376z"/>
</g>
</svg>
